<svg width="18" height="18" viewBox="0 0 18 18" fill="none" xmlns="http://www.w3.org/2000/svg">
<path d="M1.06653 9.00037L0.0230174 2.05091C-0.023253 1.74017 0.00371478 1.42073 0.101079 1.12625C0.198444 0.831772 0.3626 0.573153 0.576253 0.377643C0.789906 0.182133 1.04514 0.0569706 1.31508 0.0153435C1.58501 -0.0262836 1.85964 0.0171658 2.11003 0.141114L17.229 7.64444C17.4579 7.75847 17.6529 7.94768 17.79 8.18866C17.927 8.42964 18 8.71184 18 9.00037C18 9.28889 17.927 9.57109 17.79 9.81207C17.6529 10.0531 17.4579 10.2423 17.229 10.3563L2.1089 17.8596C1.8584 17.9832 1.58377 18.0263 1.31389 17.9845C1.04401 17.9426 0.788861 17.8173 0.575284 17.6217C0.361707 17.4261 0.197595 17.1675 0.100211 16.8731C0.00282733 16.5786 -0.0242286 16.2593 0.0218893 15.9485L1.06653 9.00037ZM1.74678 2.09271L2.63574 8.02065H8.12966C8.35406 8.02065 8.56926 8.12387 8.72794 8.3076C8.88661 8.49133 8.97575 8.74053 8.97575 9.00037C8.97575 9.2602 8.88661 9.5094 8.72794 9.69313C8.56926 9.87686 8.35406 9.98008 8.12966 9.98008H2.63574L1.74678 15.908L15.6644 9.00037L1.74678 2.09271Z" fill="black"/>
</svg>
